# xmcd
#
# Track frame offsets: 
#        150
#        33006
#        56818
#        80119
#        97133
#        121437
#        142582
#        163853
#
# Disc length: 2466 seconds
#
# Revision: 0
# Processed by: cddbd v1.5.2PL0 Copyright (c) Steve Scherf et al.
# Submitted via: ExactAudioCopy v0.99pb4
#
DISCID=6809a008
DTITLE=Bloodstone - Party
DYEAR=1984
DGENRE=R&B
TTITLE0=Bloodstone's Party
TTITLE1=Feel The Heat
TTITLE2=Contagious
TTITLE3=Men Need Tenderness Too
TTITLE4=Instant Love
TTITLE5=It Feels So Good (With You)
TTITLE6=I Adore You
TTITLE7=Why Be The First One Home
EXTD=
EXTT0=
EXTT1=
EXTT2=
EXTT3=
EXTT4=
EXTT5=
EXTT6=
EXTT7=
PLAYORDER=
